<svg width="279" height="68" viewBox="0 0 279 68" fill="none" xmlns="http://www.w3.org/2000/svg">
<path d="M49.792 22.3106C49.3762 22.4513 49.0991 22.8069 49.0991 23.2039C49.0991 23.601 49.3762 23.9568 49.792 24.0974L55.0109 25.851L56.9693 30.5248C57.1263 30.897 57.5234 31.1451 57.9668 31.1451C58.4102 31.1451 58.8074 30.897 58.9645 30.5248L60.9227 25.851L66.1418 24.0974C66.5574 23.9568 66.8344 23.601 66.8344 23.2039C66.8344 22.8069 66.5574 22.4513 66.1418 22.3106L60.9227 20.5569L58.9645 15.8832C58.8074 15.511 58.4102 15.2628 57.9668 15.2628C57.5234 15.2628 57.1263 15.511 56.9693 15.8832L55.0109 20.5569L49.792 22.3106ZM38.4857 21.3263C38.2455 20.8548 37.719 20.5569 37.1463 20.5569C36.5737 20.5569 36.0471 20.8548 35.8069 21.3263L30.9297 30.7564L20.3994 35.1157C19.8729 35.3308 19.5403 35.8024 19.5403 36.3235C19.5403 36.8446 19.8729 37.3078 20.3994 37.5229L30.939 41.8823L35.7977 51.3125C36.0379 51.7839 36.5644 52.0818 37.1371 52.0818C37.7097 52.0818 38.2363 51.7839 38.4765 51.3125L43.3444 41.874L53.8839 37.5146C54.4105 37.2995 54.7431 36.828 54.7431 36.3152C54.7431 35.8024 54.4105 35.3308 53.8839 35.1157L43.3537 30.7646L38.4857 21.3263ZM55.0109 47.0275L49.792 48.7812C49.3762 48.9219 49.0991 49.2775 49.0991 49.6745C49.0991 50.0716 49.3762 50.4273 49.792 50.568L55.0109 52.3216L56.9693 56.9954C57.1263 57.3676 57.5234 57.6157 57.9668 57.6157C58.4102 57.6157 58.8074 57.3676 58.9645 56.9954L60.9227 52.3216L66.1418 50.568C66.5574 50.4273 66.8344 50.0716 66.8344 49.6745C66.8344 49.2775 66.5574 48.9219 66.1418 48.7812L60.9227 47.0275L58.9645 42.3538C58.8074 41.9816 58.4102 41.7334 57.9668 41.7334C57.5234 41.7334 57.1263 41.9816 56.9693 42.3538L55.0109 47.0275Z" fill="url(#paint0_linear_1_52)"/>
<g filter="url(#filter0_d_1_52)">
<path d="M42.5827 39.0958C28.4652 43.4865 17.697 48.7898 18.5312 50.941C19.3655 53.0922 31.4863 51.2767 45.6038 46.886C59.7213 42.4952 70.4895 37.192 69.6553 35.0408C68.821 32.8896 56.7002 34.7051 42.5827 39.0958Z" stroke="url(#paint1_linear_1_52)" stroke-width="0.549291"/>
<g style="mix-blend-mode:screen" filter="url(#filter1_f_1_52)">
<path d="M42.5827 39.0958C28.4652 43.4865 17.697 48.7898 18.5312 50.941C19.3655 53.0922 31.4863 51.2767 45.6038 46.886C59.7213 42.4952 70.4895 37.192 69.6553 35.0408C68.821 32.8896 56.7002 34.7051 42.5827 39.0958Z" stroke="url(#paint2_linear_1_52)" stroke-width="0.549291"/>
</g>
</g>
<g filter="url(#filter2_d_1_52)">
<path d="M65.6783 3.69365C66.082 3.69365 66.4094 3.40053 66.4094 3.03895C66.4094 2.67737 66.082 2.38425 65.6783 2.38425C65.2745 2.38425 64.9472 2.67737 64.9472 3.03895C64.9472 3.40053 65.2745 3.69365 65.6783 3.69365Z" fill="url(#paint3_linear_1_52)"/>
</g>
<g filter="url(#filter3_d_1_52)">
<path d="M79.0927 15.0944C79.263 15.0944 79.4011 14.9708 79.4011 14.8182C79.4011 14.6657 79.263 14.542 79.0927 14.542C78.9223 14.542 78.7842 14.6657 78.7842 14.8182C78.7842 14.9708 78.9223 15.0944 79.0927 15.0944Z" fill="url(#paint4_linear_1_52)"/>
</g>
<g filter="url(#filter4_d_1_52)">
<path d="M28.2226 22.0464C28.6645 22.0464 29.0227 21.7256 29.0227 21.3298C29.0227 20.9341 28.6645 20.6133 28.2226 20.6133C27.7807 20.6133 27.4225 20.9341 27.4225 21.3298C27.4225 21.7256 27.7807 22.0464 28.2226 22.0464Z" fill="url(#paint5_linear_1_52)"/>
</g>
<g filter="url(#filter5_d_1_52)">
<path d="M19.9813 43.0342C20.4232 43.0342 20.7815 42.7134 20.7815 42.3176C20.7815 41.9219 20.4232 41.6011 19.9813 41.6011C19.5394 41.6011 19.1812 41.9219 19.1812 42.3176C19.1812 42.7134 19.5394 43.0342 19.9813 43.0342Z" fill="url(#paint6_linear_1_52)"/>
</g>
<g filter="url(#filter6_d_1_52)">
<path d="M67.3556 48.7958C67.7975 48.7958 68.1558 48.475 68.1558 48.0792C68.1558 47.6835 67.7975 47.3627 67.3556 47.3627C66.9137 47.3627 66.5555 47.6835 66.5555 48.0792C66.5555 48.475 66.9137 48.7958 67.3556 48.7958Z" fill="url(#paint7_linear_1_52)"/>
</g>
<g filter="url(#filter7_d_1_52)">
<path d="M29.8844 36.6625C30.0548 36.6625 30.1928 36.5388 30.1928 36.3863C30.1928 36.2338 30.0548 36.1101 29.8844 36.1101C29.7141 36.1101 29.576 36.2338 29.576 36.3863C29.576 36.5388 29.7141 36.6625 29.8844 36.6625Z" fill="url(#paint8_linear_1_52)"/>
</g>
<g filter="url(#filter8_d_1_52)">
<path d="M41.7013 14.3657C41.969 14.3657 42.186 14.1714 42.186 13.9317C42.186 13.692 41.969 13.4977 41.7013 13.4977C41.4337 13.4977 41.2167 13.692 41.2167 13.9317C41.2167 14.1714 41.4337 14.3657 41.7013 14.3657Z" fill="url(#paint9_linear_1_52)"/>
</g>
<g filter="url(#filter9_d_1_52)">
<path d="M64.5139 24.4971C64.2941 24.4689 64.1373 24.3011 64.1394 24.0925C64.1292 22.2302 63.8921 21.9408 61.9653 21.4901C61.7434 21.4364 61.5966 21.2449 61.6281 21.0484C61.66 20.8491 61.8571 20.7072 62.0877 20.7062C64.073 20.7131 64.3481 20.5311 64.9935 18.7556C65.0654 18.5587 65.2625 18.4364 65.4792 18.4643C65.7019 18.4929 65.8556 18.6602 65.8596 18.8696C65.8641 20.7284 66.1012 21.0178 68.0251 21.4682C68.2525 21.5252 68.3971 21.711 68.3648 21.9129C68.3334 22.1095 68.1423 22.2521 67.9056 22.2524C65.9163 22.2506 65.6448 22.4303 65.0055 24.2065C64.9271 24.4052 64.7273 24.5245 64.5139 24.4971Z" fill="url(#paint10_linear_1_52)"/>
</g>
<g filter="url(#filter10_d_1_52)">
<path d="M23.454 33.9923C23.2948 34.0138 23.1468 33.9266 23.0997 33.7812C22.6584 32.4898 22.4263 32.3331 20.9831 32.3804C20.8165 32.3848 20.6699 32.2791 20.6459 32.1369C20.6216 31.9925 20.7254 31.8572 20.8853 31.8132C22.2657 31.4467 22.4143 31.269 22.4485 29.9155C22.4526 29.7651 22.5609 29.6433 22.7178 29.6222C22.8792 29.6003 23.025 29.6878 23.0765 29.8325C23.5131 31.1225 23.7452 31.2792 25.1862 31.2323C25.3575 31.2293 25.5012 31.3313 25.5259 31.4776C25.5498 31.62 25.4505 31.7548 25.2862 31.7991C23.9042 32.1699 23.7575 32.3455 23.7277 33.6985C23.7195 33.8513 23.6087 33.9713 23.454 33.9923Z" fill="url(#paint11_linear_1_52)"/>
</g>
<path d="M86.2841 25.1818V47H83.642V25.1818H86.2841ZM91.5815 25.1818H94.7349L102.15 43.2926H102.405L109.82 25.1818H112.974V47H110.502V30.4233H110.289L103.471 47H101.084L94.2662 30.4233H94.0531V47H91.5815V25.1818ZM119.166 47H116.396L124.407 25.1818H127.135L135.146 47H132.376L125.856 28.6335H125.686L119.166 47ZM120.189 38.4773H131.353V40.821H120.189V38.4773ZM152.434 32C152.199 31.2827 151.89 30.6399 151.507 30.0717C151.131 29.4964 150.68 29.0064 150.154 28.6016C149.635 28.1967 149.046 27.8878 148.385 27.6747C147.725 27.4616 147.001 27.3551 146.212 27.3551C144.92 27.3551 143.744 27.6889 142.686 28.3565C141.628 29.0241 140.786 30.0078 140.161 31.3075C139.536 32.6072 139.224 34.2017 139.224 36.0909C139.224 37.9801 139.54 39.5746 140.172 40.8743C140.804 42.174 141.66 43.1577 142.739 43.8253C143.819 44.4929 145.033 44.8267 146.383 44.8267C147.633 44.8267 148.733 44.5604 149.685 44.0277C150.644 43.4879 151.39 42.728 151.922 41.7479C152.462 40.7607 152.732 39.5994 152.732 38.2642L153.542 38.4347H146.979V36.0909H155.289V38.4347C155.289 40.2315 154.905 41.794 154.138 43.1222C153.378 44.4503 152.327 45.4801 150.985 46.2116C149.65 46.9361 148.116 47.2983 146.383 47.2983C144.451 47.2983 142.753 46.8438 141.29 45.9347C139.834 45.0256 138.698 43.733 137.881 42.0568C137.072 40.3807 136.667 38.392 136.667 36.0909C136.667 34.3651 136.898 32.8132 137.359 31.4354C137.828 30.0504 138.488 28.8714 139.341 27.8984C140.193 26.9254 141.202 26.1797 142.366 25.6612C143.531 25.1428 144.813 24.8835 146.212 24.8835C147.363 24.8835 148.435 25.0575 149.43 25.4055C150.431 25.7464 151.322 26.233 152.104 26.8651C152.892 27.4901 153.549 28.2393 154.074 29.1129C154.6 29.9794 154.962 30.9418 155.161 32H152.434ZM162.456 25.1818V47H159.814V25.1818H162.456ZM185.055 25.1818V47H182.498L170.608 29.8693H170.395V47H167.753V25.1818H170.31L182.242 42.3551H182.455V25.1818H185.055ZM191.236 47H188.466L196.478 25.1818H199.205L207.216 47H204.446L197.926 28.6335H197.756L191.236 47ZM192.259 38.4773H203.424V40.821H192.259V38.4773ZM212.106 47.1705C211.581 47.1705 211.13 46.9822 210.753 46.6058C210.377 46.2294 210.189 45.7784 210.189 45.2528C210.189 44.7273 210.377 44.2763 210.753 43.8999C211.13 43.5234 211.581 43.3352 212.106 43.3352C212.632 43.3352 213.083 43.5234 213.459 43.8999C213.836 44.2763 214.024 44.7273 214.024 45.2528C214.024 45.6009 213.935 45.9205 213.757 46.2116C213.587 46.5028 213.356 46.7372 213.065 46.9148C212.781 47.0852 212.461 47.1705 212.106 47.1705ZM219.771 47H217.001L225.013 25.1818H227.74L235.751 47H232.982L226.462 28.6335H226.291L219.771 47ZM220.794 38.4773H231.959V40.821H220.794V38.4773ZM241.792 25.1818V47H239.15V25.1818H241.792Z" fill="#26A4FF"/>
<defs>
<filter id="filter0_d_1_52" x="16.5684" y="32.5577" width="55.0496" height="21.5209" filterUnits="userSpaceOnUse" color-interpolation-filters="sRGB">
<feFlood flood-opacity="0" result="BackgroundImageFix"/>
<feColorMatrix in="SourceAlpha" type="matrix" values="0 0 0 0 0 0 0 0 0 0 0 0 0 0 0 0 0 0 127 0" result="hardAlpha"/>
<feOffset dy="0.327344"/>
<feGaussianBlur stdDeviation="0.818361"/>
<feComposite in2="hardAlpha" operator="out"/>
<feColorMatrix type="matrix" values="0 0 0 0 0 0 0 0 0 0 0 0 0 0 0 0 0 0 0.45 0"/>
<feBlend mode="normal" in2="BackgroundImageFix" result="effect1_dropShadow_1_52"/>
<feBlend mode="normal" in="SourceGraphic" in2="effect1_dropShadow_1_52" result="shape"/>
</filter>
<filter id="filter1_f_1_52" x="17.9508" y="33.6127" width="52.285" height="18.7563" filterUnits="userSpaceOnUse" color-interpolation-filters="sRGB">
<feFlood flood-opacity="0" result="BackgroundImageFix"/>
<feBlend mode="normal" in="SourceGraphic" in2="BackgroundImageFix" result="shape"/>
<feGaussianBlur stdDeviation="0.127195" result="effect1_foregroundBlur_1_52"/>
</filter>
<filter id="filter2_d_1_52" x="64.6057" y="2.04276" width="2.14515" height="1.99237" filterUnits="userSpaceOnUse" color-interpolation-filters="sRGB">
<feFlood flood-opacity="0" result="BackgroundImageFix"/>
<feColorMatrix in="SourceAlpha" type="matrix" values="0 0 0 0 0 0 0 0 0 0 0 0 0 0 0 0 0 0 127 0" result="hardAlpha"/>
<feOffset/>
<feGaussianBlur stdDeviation="0.170743"/>
<feComposite in2="hardAlpha" operator="out"/>
<feColorMatrix type="matrix" values="0 0 0 0 0.592157 0 0 0 0 0.392157 0 0 0 0 1 0 0 0 1 0"/>
<feBlend mode="normal" in2="BackgroundImageFix" result="effect1_dropShadow_1_52"/>
<feBlend mode="normal" in="SourceGraphic" in2="effect1_dropShadow_1_52" result="shape"/>
</filter>
<filter id="filter3_d_1_52" x="78.4428" y="14.2005" width="1.29982" height="1.23538" filterUnits="userSpaceOnUse" color-interpolation-filters="sRGB">
<feFlood flood-opacity="0" result="BackgroundImageFix"/>
<feColorMatrix in="SourceAlpha" type="matrix" values="0 0 0 0 0 0 0 0 0 0 0 0 0 0 0 0 0 0 127 0" result="hardAlpha"/>
<feOffset/>
<feGaussianBlur stdDeviation="0.170743"/>
<feComposite in2="hardAlpha" operator="out"/>
<feColorMatrix type="matrix" values="0 0 0 0 0.592157 0 0 0 0 0.392157 0 0 0 0 1 0 0 0 1 0"/>
<feBlend mode="normal" in2="BackgroundImageFix" result="effect1_dropShadow_1_52"/>
<feBlend mode="normal" in="SourceGraphic" in2="effect1_dropShadow_1_52" result="shape"/>
</filter>
<filter id="filter4_d_1_52" x="26.5366" y="19.7274" width="3.37206" height="3.20487" filterUnits="userSpaceOnUse" color-interpolation-filters="sRGB">
<feFlood flood-opacity="0" result="BackgroundImageFix"/>
<feColorMatrix in="SourceAlpha" type="matrix" values="0 0 0 0 0 0 0 0 0 0 0 0 0 0 0 0 0 0 127 0" result="hardAlpha"/>
<feOffset/>
<feGaussianBlur stdDeviation="0.442949"/>
<feComposite in2="hardAlpha" operator="out"/>
<feColorMatrix type="matrix" values="0 0 0 0 0.592157 0 0 0 0 0.392157 0 0 0 0 1 0 0 0 1 0"/>
<feBlend mode="normal" in2="BackgroundImageFix" result="effect1_dropShadow_1_52"/>
<feBlend mode="normal" in="SourceGraphic" in2="effect1_dropShadow_1_52" result="shape"/>
</filter>
<filter id="filter5_d_1_52" x="18.2953" y="40.7152" width="3.37206" height="3.20487" filterUnits="userSpaceOnUse" color-interpolation-filters="sRGB">
<feFlood flood-opacity="0" result="BackgroundImageFix"/>
<feColorMatrix in="SourceAlpha" type="matrix" values="0 0 0 0 0 0 0 0 0 0 0 0 0 0 0 0 0 0 127 0" result="hardAlpha"/>
<feOffset/>
<feGaussianBlur stdDeviation="0.442949"/>
<feComposite in2="hardAlpha" operator="out"/>
<feColorMatrix type="matrix" values="0 0 0 0 0.592157 0 0 0 0 0.392157 0 0 0 0 1 0 0 0 1 0"/>
<feBlend mode="normal" in2="BackgroundImageFix" result="effect1_dropShadow_1_52"/>
<feBlend mode="normal" in="SourceGraphic" in2="effect1_dropShadow_1_52" result="shape"/>
</filter>
<filter id="filter6_d_1_52" x="65.6696" y="46.4768" width="3.37206" height="3.20487" filterUnits="userSpaceOnUse" color-interpolation-filters="sRGB">
<feFlood flood-opacity="0" result="BackgroundImageFix"/>
<feColorMatrix in="SourceAlpha" type="matrix" values="0 0 0 0 0 0 0 0 0 0 0 0 0 0 0 0 0 0 127 0" result="hardAlpha"/>
<feOffset/>
<feGaussianBlur stdDeviation="0.442949"/>
<feComposite in2="hardAlpha" operator="out"/>
<feColorMatrix type="matrix" values="0 0 0 0 0.592157 0 0 0 0 0.392157 0 0 0 0 1 0 0 0 1 0"/>
<feBlend mode="normal" in2="BackgroundImageFix" result="effect1_dropShadow_1_52"/>
<feBlend mode="normal" in="SourceGraphic" in2="effect1_dropShadow_1_52" result="shape"/>
</filter>
<filter id="filter7_d_1_52" x="29.2345" y="35.7686" width="1.29982" height="1.23539" filterUnits="userSpaceOnUse" color-interpolation-filters="sRGB">
<feFlood flood-opacity="0" result="BackgroundImageFix"/>
<feColorMatrix in="SourceAlpha" type="matrix" values="0 0 0 0 0 0 0 0 0 0 0 0 0 0 0 0 0 0 127 0" result="hardAlpha"/>
<feOffset/>
<feGaussianBlur stdDeviation="0.170743"/>
<feComposite in2="hardAlpha" operator="out"/>
<feColorMatrix type="matrix" values="0 0 0 0 0.592157 0 0 0 0 0.392157 0 0 0 0 1 0 0 0 1 0"/>
<feBlend mode="normal" in2="BackgroundImageFix" result="effect1_dropShadow_1_52"/>
<feBlend mode="normal" in="SourceGraphic" in2="effect1_dropShadow_1_52" result="shape"/>
</filter>
<filter id="filter8_d_1_52" x="40.6801" y="12.961" width="2.04259" height="1.94131" filterUnits="userSpaceOnUse" color-interpolation-filters="sRGB">
<feFlood flood-opacity="0" result="BackgroundImageFix"/>
<feColorMatrix in="SourceAlpha" type="matrix" values="0 0 0 0 0 0 0 0 0 0 0 0 0 0 0 0 0 0 127 0" result="hardAlpha"/>
<feOffset/>
<feGaussianBlur stdDeviation="0.268311"/>
<feComposite in2="hardAlpha" operator="out"/>
<feColorMatrix type="matrix" values="0 0 0 0 0.592157 0 0 0 0 0.392157 0 0 0 0 1 0 0 0 1 0"/>
<feBlend mode="normal" in2="BackgroundImageFix" result="effect1_dropShadow_1_52"/>
<feBlend mode="normal" in="SourceGraphic" in2="effect1_dropShadow_1_52" result="shape"/>
</filter>
<filter id="filter9_d_1_52" x="59.4934" y="16.8846" width="11.0063" height="10.3016" filterUnits="userSpaceOnUse" color-interpolation-filters="sRGB">
<feFlood flood-opacity="0" result="BackgroundImageFix"/>
<feColorMatrix in="SourceAlpha" type="matrix" values="0 0 0 0 0 0 0 0 0 0 0 0 0 0 0 0 0 0 127 0" result="hardAlpha"/>
<feOffset dy="0.554677"/>
<feGaussianBlur stdDeviation="1.06523"/>
<feComposite in2="hardAlpha" operator="out"/>
<feColorMatrix type="matrix" values="0 0 0 0 0.296824 0 0 0 0 0.244184 0 0 0 0 0.404167 0 0 0 0.6 0"/>
<feBlend mode="normal" in2="BackgroundImageFix" result="effect1_dropShadow_1_52"/>
<feBlend mode="normal" in="SourceGraphic" in2="effect1_dropShadow_1_52" result="shape"/>
</filter>
<filter id="filter10_d_1_52" x="19.5608" y="28.8188" width="7.05027" height="6.53996" filterUnits="userSpaceOnUse" color-interpolation-filters="sRGB">
<feFlood flood-opacity="0" result="BackgroundImageFix"/>
<feColorMatrix in="SourceAlpha" type="matrix" values="0 0 0 0 0 0 0 0 0 0 0 0 0 0 0 0 0 0 127 0" result="hardAlpha"/>
<feOffset dy="0.281606"/>
<feGaussianBlur stdDeviation="0.540812"/>
<feComposite in2="hardAlpha" operator="out"/>
<feColorMatrix type="matrix" values="0 0 0 0 0.220722 0 0 0 0 0.210451 0 0 0 0 0.241667 0 0 0 0.6 0"/>
<feBlend mode="normal" in2="BackgroundImageFix" result="effect1_dropShadow_1_52"/>
<feBlend mode="normal" in="SourceGraphic" in2="effect1_dropShadow_1_52" result="shape"/>
</filter>
<linearGradient id="paint0_linear_1_52" x1="20.9416" y1="34.2485" x2="67.9545" y2="35.3509" gradientUnits="userSpaceOnUse">
<stop stop-color="#26A4FF"/>
<stop offset="1" stop-color="#0D9AFF"/>
</linearGradient>
<linearGradient id="paint1_linear_1_52" x1="19.3513" y1="53.8871" x2="17.7439" y2="48.6211" gradientUnits="userSpaceOnUse">
<stop stop-color="#3F5FFF"/>
<stop offset="1" stop-color="#3F5FFF" stop-opacity="0"/>
</linearGradient>
<linearGradient id="paint2_linear_1_52" x1="19.3513" y1="53.8871" x2="17.7439" y2="48.6211" gradientUnits="userSpaceOnUse">
<stop stop-color="#1DA0FF"/>
<stop offset="1" stop-color="#199FFF" stop-opacity="0.13"/>
</linearGradient>
<linearGradient id="paint3_linear_1_52" x1="64.9903" y1="2.97122" x2="66.4439" y2="3.0053" gradientUnits="userSpaceOnUse">
<stop stop-color="#26A4FF"/>
<stop offset="1" stop-color="#0D9AFF"/>
</linearGradient>
<linearGradient id="paint4_linear_1_52" x1="78.8024" y1="14.7896" x2="79.4156" y2="14.804" gradientUnits="userSpaceOnUse">
<stop stop-color="#26A4FF"/>
<stop offset="1" stop-color="#0D9AFF"/>
</linearGradient>
<linearGradient id="paint5_linear_1_52" x1="27.4699" y1="21.2557" x2="29.0606" y2="21.2931" gradientUnits="userSpaceOnUse">
<stop stop-color="#26A4FF"/>
<stop offset="1" stop-color="#0D9AFF"/>
</linearGradient>
<linearGradient id="paint6_linear_1_52" x1="19.2286" y1="42.2435" x2="20.8194" y2="42.2809" gradientUnits="userSpaceOnUse">
<stop stop-color="#26A4FF"/>
<stop offset="1" stop-color="#0D9AFF"/>
</linearGradient>
<linearGradient id="paint7_linear_1_52" x1="66.6029" y1="48.0051" x2="68.1938" y2="48.0425" gradientUnits="userSpaceOnUse">
<stop stop-color="#26A4FF"/>
<stop offset="1" stop-color="#0D9AFF"/>
</linearGradient>
<linearGradient id="paint8_linear_1_52" x1="29.5943" y1="36.3577" x2="30.2074" y2="36.3722" gradientUnits="userSpaceOnUse">
<stop stop-color="#26A4FF"/>
<stop offset="1" stop-color="#0D9AFF"/>
</linearGradient>
<linearGradient id="paint9_linear_1_52" x1="41.2454" y1="13.8868" x2="42.2089" y2="13.9094" gradientUnits="userSpaceOnUse">
<stop stop-color="#26A4FF"/>
<stop offset="1" stop-color="#0D9AFF"/>
</linearGradient>
<linearGradient id="paint10_linear_1_52" x1="68.2152" y1="21.5753" x2="61.5219" y2="20.6638" gradientUnits="userSpaceOnUse">
<stop stop-color="#26A4FF"/>
<stop offset="1" stop-color="#0D9AFF"/>
</linearGradient>
<linearGradient id="paint11_linear_1_52" x1="25.3432" y1="31.2711" x2="20.5414" y2="32.1956" gradientUnits="userSpaceOnUse">
<stop stop-color="#26A4FF"/>
<stop offset="1" stop-color="#0D9AFF"/>
</linearGradient>
</defs>
</svg>
